<svg width="16" height="16" viewBox="0 0 16 16" fill="none" xmlns="http://www.w3.org/2000/svg">
<path d="M6.0599 6.00009C6.21663 5.55454 6.526 5.17883 6.9332 4.93952C7.3404 4.7002 7.81916 4.61272 8.28468 4.69257C8.7502 4.77242 9.17244 5.01444 9.47661 5.37578C9.78079 5.73712 9.94727 6.19444 9.94656 6.66676C9.94656 8.00009 7.94656 8.66676 7.94656 8.66676M8 11.3334H8.00667M14.6667 8.00004C14.6667 11.6819 11.6819 14.6667 8 14.6667C4.3181 14.6667 1.33333 11.6819 1.33333 8.00004C1.33333 4.31814 4.3181 1.33337 8 1.33337C11.6819 1.33337 14.6667 4.31814 14.6667 8.00004Z" stroke="#18181B" stroke-width="1.5" stroke-linecap="round" stroke-linejoin="round"/>
</svg>
