<svg width="16" height="14" viewBox="0 0 16 14" fill="none" xmlns="http://www.w3.org/2000/svg">
<path d="M8 3.66667C8 2.95942 7.71905 2.28115 7.21895 1.78105C6.71886 1.28095 6.04058 1 5.33333 1H1.33333V11H6C6.53043 11 7.03914 11.2107 7.41421 11.5858C7.78929 11.9609 8 12.4696 8 13M8 3.66667V13M8 3.66667C8 2.95942 8.28095 2.28115 8.78105 1.78105C9.28115 1.28095 9.95942 1 10.6667 1H14.6667V11H10C9.46957 11 8.96086 11.2107 8.58579 11.5858C8.21071 11.9609 8 12.4696 8 13" stroke="#3F3F46" stroke-width="1.5" stroke-linecap="round" stroke-linejoin="round"/>
</svg>
