<svg width="14" height="4" viewBox="0 0 14 4" fill="none" xmlns="http://www.w3.org/2000/svg">
<path d="M7 2.66671C7.36819 2.66671 7.66667 2.36823 7.66667 2.00004C7.66667 1.63185 7.36819 1.33337 7 1.33337C6.63181 1.33337 6.33333 1.63185 6.33333 2.00004C6.33333 2.36823 6.63181 2.66671 7 2.66671Z" stroke="#3F3F46" stroke-width="1.5" stroke-linecap="round" stroke-linejoin="round"/>
<path d="M11.6667 2.66671C12.0349 2.66671 12.3333 2.36823 12.3333 2.00004C12.3333 1.63185 12.0349 1.33337 11.6667 1.33337C11.2985 1.33337 11 1.63185 11 2.00004C11 2.36823 11.2985 2.66671 11.6667 2.66671Z" stroke="#3F3F46" stroke-width="1.5" stroke-linecap="round" stroke-linejoin="round"/>
<path d="M2.33333 2.66671C2.70152 2.66671 3 2.36823 3 2.00004C3 1.63185 2.70152 1.33337 2.33333 1.33337C1.96514 1.33337 1.66667 1.63185 1.66667 2.00004C1.66667 2.36823 1.96514 2.66671 2.33333 2.66671Z" stroke="#3F3F46" stroke-width="1.5" stroke-linecap="round" stroke-linejoin="round"/>
</svg>
