<svg width="16" height="16" viewBox="0 0 16 16" fill="none" xmlns="http://www.w3.org/2000/svg">
<path d="M14.1399 10.5934C13.7158 11.5964 13.0525 12.4802 12.2079 13.1676C11.3633 13.855 10.3631 14.325 9.2949 14.5366C8.22668 14.7482 7.12289 14.6949 6.08004 14.3813C5.03719 14.0677 4.08703 13.5035 3.31262 12.7379C2.53822 11.9723 1.96315 11.0286 1.6377 9.98939C1.31225 8.95019 1.24632 7.84708 1.44568 6.77652C1.64503 5.70595 2.10361 4.70051 2.78131 3.84811C3.45901 2.99571 4.3352 2.3223 5.33328 1.88676M14.6667 8.00004C14.6667 7.12456 14.4942 6.25765 14.1592 5.44882C13.8242 4.63998 13.3331 3.90505 12.714 3.286C12.095 2.66694 11.3601 2.17588 10.5512 1.84084C9.74239 1.50581 8.87548 1.33337 8 1.33337V8.00004H14.6667Z" stroke="#3F3F46" stroke-width="1.5" stroke-linecap="round" stroke-linejoin="round"/>
</svg>
