<svg width="14" height="14" viewBox="0 0 14 14" fill="none" xmlns="http://www.w3.org/2000/svg">
<path d="M12.3333 3.66669H6.33333M8.33333 10.3334H2.33333M8.33333 10.3334C8.33333 11.4379 9.22876 12.3334 10.3333 12.3334C11.4379 12.3334 12.3333 11.4379 12.3333 10.3334C12.3333 9.22878 11.4379 8.33335 10.3333 8.33335C9.22876 8.33335 8.33333 9.22878 8.33333 10.3334ZM5.66667 3.66669C5.66667 4.77126 4.77124 5.66669 3.66667 5.66669C2.5621 5.66669 1.66667 4.77126 1.66667 3.66669C1.66667 2.56212 2.5621 1.66669 3.66667 1.66669C4.77124 1.66669 5.66667 2.56212 5.66667 3.66669Z" stroke="#3F3F46" stroke-width="1.5" stroke-linecap="round" stroke-linejoin="round"/>
</svg>
