<svg width="14" height="14" viewBox="0 0 14 14" fill="none" xmlns="http://www.w3.org/2000/svg">
<path d="M9 2.84259C8.79312 2.84259 8.58907 2.79445 8.404 2.70197L5.596 1.29797C5.41094 1.20549 5.20689 1.15735 5 1.15735M9 2.84259C9.20689 2.84259 9.41094 2.79445 9.596 2.70197L12.0353 1.48197C12.1371 1.43114 12.2501 1.40718 12.3637 1.41235C12.4773 1.41752 12.5876 1.45166 12.6843 1.51152C12.781 1.57139 12.8607 1.65498 12.916 1.75436C12.9713 1.85374 13.0002 1.9656 13 2.0793V10.5886C12.9999 10.7124 12.9654 10.8337 12.9003 10.939C12.8352 11.0443 12.7421 11.1293 12.6313 11.1846L9.596 12.7026C9.41094 12.7951 9.20689 12.8433 9 12.8433C8.79312 12.8433 8.58907 12.7951 8.404 12.7026L5.596 11.2986C5.41094 11.2062 5.20689 11.158 5 11.158C4.79312 11.158 4.58907 11.2062 4.404 11.2986L1.96467 12.5186C1.8629 12.5695 1.74982 12.5935 1.63617 12.5883C1.52253 12.583 1.41211 12.5488 1.31541 12.4889C1.21872 12.429 1.13898 12.3453 1.08377 12.2458C1.02856 12.1463 0.999721 12.0344 1 11.9206V3.41197C1.00007 3.2882 1.03459 3.16688 1.0997 3.06162C1.16482 2.95636 1.25795 2.8713 1.36867 2.81597L4.404 1.29797C4.58907 1.20549 4.79312 1.15735 5 1.15735M9 2.84259L9 12.8426M5 1.15735L5 11.1573" stroke="#3F3F46" stroke-width="1.5" stroke-linecap="round" stroke-linejoin="round"/>
</svg>
